{
  "accessors": [
    {
      "bufferView": 2,
      "componentType": 5126,
      "count": 2196,
      "max": [
        1.249979853630066,
        1.249979853630066,
        0.24999994039535522
      ],
      "min": [
        -1.2499797344207764,
        -1.2499802112579346,
        -0.2499999701976776
      ],
      "type": "VEC3"
    },
    {
      "bufferView": 2,
      "byteOffset": 26352,
      "componentType": 5126,
      "count": 2196,
      "max": [
        0.999984085559845,
        0.999984085559845,
        0.9659426808357239
      ],
      "min": [
        -0.999984085559845,
        -0.999984085559845,
        -0.9659428000450134
      ],
      "type": "VEC3"
    },
    {
      "bufferView": 1,
      "componentType": 5126,
      "count": 2196,
      "max": [
        1.0,
        1.0
      ],
      "min": [
        1.5543122344752192e-15,
        2.220446049250313e-16
      ],
      "type": "VEC2"
    },
    {
      "bufferView": 0,
      "componentType": 5125,
      "count": 7920,
      "type": "SCALAR"
    },
    {
      "bufferView": 2,
      "byteOffset": 52704,
      "componentType": 5126,
      "count": 244,
      "max": [
        1.216486930847168,
        1.2164866924285889,
        0.21650631725788116
      ],
      "min": [
        -1.2164866924285889,
        -1.216487169265747,
        0.12400735914707184
      ],
      "type": "VEC3"
    },
    {
      "bufferView": 2,
      "byteOffset": 55632,
      "componentType": 5126,
      "count": 244,
      "max": [
        0.8681344389915466,
        0.8681342601776123,
        0.7071076035499573
      ],
      "min": [
        -0.8681342601776123,
        -0.8681342601776123,
        -0.7071406841278076
      ],
      "type": "VEC3"
    },
    {
      "bufferView": 1,
      "byteOffset": 17568,
      "componentType": 5126,
      "count": 244,
      "max": [
        1.0,
        0.6666666865348816
      ],
      "min": [
        1.5543122344752192e-15,
        0.5833333134651184
      ],
      "type": "VEC2"
    },
    {
      "bufferView": 0,
      "byteOffset": 31680,
      "componentType": 5125,
      "count": 720,
      "type": "SCALAR"
    },
    {
      "bufferView": 2,
      "byteOffset": 58560,
      "componentType": 5126,
      "count": 1396,
      "max": [
        2.01348876953125,
        2.0512237548828125,
        0.17417751252651215
      ],
      "min": [
        -2.0428500175476074,
        -2.040032386779785,
        -9.774996757507324
      ],
      "type": "VEC3"
    },
    {
      "bufferView": 2,
      "byteOffset": 75312,
      "componentType": 5126,
      "count": 1396,
      "max": [
        1.0,
        1.0,
        1.0
      ],
      "min": [
        -1.0,
        -1.0,
        -1.0
      ],
      "type": "VEC3"
    },
    {
      "bufferView": 1,
      "byteOffset": 19520,
      "componentType": 5126,
      "count": 1396,
      "max": [
        1.0,
        1.0
      ],
      "min": [
        0.0,
        0.0
      ],
      "type": "VEC2"
    },
    {
      "bufferView": 0,
      "byteOffset": 34560,
      "componentType": 5125,
      "count": 4236,
      "type": "SCALAR"
    },
    {
      "bufferView": 2,
      "byteOffset": 92064,
      "componentType": 5126,
      "count": 486,
      "max": [
        1.0,
        1.0,
        2.7472543716430664
      ],
      "min": [
        -1.0,
        -1.0,
        -1.6894932985305786
      ],
      "type": "VEC3"
    },
    {
      "bufferView": 2,
      "byteOffset": 97896,
      "componentType": 5126,
      "count": 486,
      "max": [
        1.0,
        1.0,
        1.0
      ],
      "min": [
        -1.0,
        -1.0,
        -1.0
      ],
      "type": "VEC3"
    },
    {
      "bufferView": 1,
      "byteOffset": 30688,
      "componentType": 5126,
      "count": 486,
      "max": [
        1.0,
        1.0
      ],
      "min": [
        0.0,
        0.0
      ],
      "type": "VEC2"
    },
    {
      "bufferView": 0,
      "byteOffset": 51504,
      "componentType": 5125,
      "count": 1614,
      "type": "SCALAR"
    },
    {
      "bufferView": 2,
      "byteOffset": 103728,
      "componentType": 5126,
      "count": 196,
      "max": [
        0.7905673384666443,
        0.7905666828155518,
        1.7455906867980957
      ],
      "min": [
        -0.7905664443969727,
        -0.7905666828155518,
        -1.0
      ],
      "type": "VEC3"
    },
    {
      "bufferView": 2,
      "byteOffset": 106080,
      "componentType": 5126,
      "count": 196,
      "max": [
        1.0,
        1.0,
        1.3674988963430224e-07
      ],
      "min": [
        -1.0,
        -1.0,
        -1.0
      ],
      "type": "VEC3"
    },
    {
      "bufferView": 1,
      "byteOffset": 34576,
      "componentType": 5126,
      "count": 196,
      "max": [
        1.0,
        1.0
      ],
      "min": [
        0.0,
        0.0
      ],
      "type": "VEC2"
    },
    {
      "bufferView": 0,
      "byteOffset": 57960,
      "componentType": 5125,
      "count": 564,
      "type": "SCALAR"
    },
    {
      "bufferView": 2,
      "byteOffset": 108432,
      "componentType": 5126,
      "count": 260,
      "max": [
        1.0,
        1.0,
        7.112180709838867
      ],
      "min": [
        -1.0,
        -1.0,
        -1.0
      ],
      "type": "VEC3"
    },
    {
      "bufferView": 2,
      "byteOffset": 111552,
      "componentType": 5126,
      "count": 260,
      "max": [
        1.0,
        1.0,
        1.0
      ],
      "min": [
        -1.0,
        -1.0,
        -1.0
      ],
      "type": "VEC3"
    },
    {
      "bufferView": 1,
      "byteOffset": 36144,
      "componentType": 5126,
      "count": 260,
      "max": [
        1.0,
        1.0
      ],
      "min": [
        0.0,
        0.01000000536441803
      ],
      "type": "VEC2"
    },
    {
      "bufferView": 0,
      "byteOffset": 60216,
      "componentType": 5125,
      "count": 744,
      "type": "SCALAR"
    },
    {
      "bufferView": 2,
      "byteOffset": 114672,
      "componentType": 5126,
      "count": 1431,
      "max": [
        1.0,
        0.13780315220355988,
        0.19666150212287903
      ],
      "min": [
        -8.096526145935059,
        -2.9719057083129883,
        -0.1966623216867447
      ],
      "type": "VEC3"
    },
    {
      "bufferView": 2,
      "byteOffset": 131844,
      "componentType": 5126,
      "count": 1431,
      "max": [
        0.9997342228889465,
        0.9995324015617371,
        0.9996111392974854
      ],
      "min": [
        -0.9996058940887451,
        -0.9995042681694031,
        -0.9996416568756104
      ],
      "type": "VEC3"
    },
    {
      "bufferView": 1,
      "byteOffset": 38224,
      "componentType": 5126,
      "count": 1431,
      "max": [
        1.0,
        1.0
      ],
      "min": [
        0.0,
        -9.393761501996778e-07
      ],
      "type": "VEC2"
    },
    {
      "bufferView": 0,
      "byteOffset": 63192,
      "componentType": 5125,
      "count": 4464,
      "type": "SCALAR"
    },
    {
      "bufferView": 2,
      "byteOffset": 149016,
      "componentType": 5126,
      "count": 818,
      "max": [
        0.38867297768592834,
        0.10090836882591248,
        0.15468837320804596
      ],
      "min": [
        -8.05807113647461,
        -2.4871504306793213,
        -0.11285751312971115
      ],
      "type": "VEC3"
    },
    {
      "bufferView": 2,
      "byteOffset": 158832,
      "componentType": 5126,
      "count": 818,
      "max": [
        0.9780383110046387,
        0.9995324015617371,
        0.9996111392974854
      ],
      "min": [
        -0.9780389070510864,
        -0.9995042681694031,
        -0.9996416568756104
      ],
      "type": "VEC3"
    },
    {
      "bufferView": 1,
      "byteOffset": 49672,
      "componentType": 5126,
      "count": 818,
      "max": [
        0.9518898725509644,
        1.0
      ],
      "min": [
        0.015947014093399048,
        -9.393761501996778e-07
      ],
      "type": "VEC2"
    },
    {
      "bufferView": 0,
      "byteOffset": 81048,
      "componentType": 5125,
      "count": 1944,
      "type": "SCALAR"
    },
    {
      "bufferView": 2,
      "byteOffset": 168648,
      "componentType": 5126,
      "count": 1431,
      "max": [
        1.0,
        0.13780315220355988,
        0.19666150212287903
      ],
      "min": [
        -8.096526145935059,
        -2.9719057083129883,
        -0.1966623216867447
      ],
      "type": "VEC3"
    },
    {
      "bufferView": 2,
      "byteOffset": 185820,
      "componentType": 5126,
      "count": 1431,
      "max": [
        0.9997342228889465,
        0.9995324015617371,
        0.9996111392974854
      ],
      "min": [
        -0.9996058940887451,
        -0.9995042681694031,
        -0.9996416568756104
      ],
      "type": "VEC3"
    },
    {
      "bufferView": 1,
      "byteOffset": 56216,
      "componentType": 5126,
      "count": 1431,
      "max": [
        1.0,
        1.0
      ],
      "min": [
        0.0,
        -9.393761501996778e-07
      ],
      "type": "VEC2"
    },
    {
      "bufferView": 0,
      "byteOffset": 88824,
      "componentType": 5125,
      "count": 4464,
      "type": "SCALAR"
    },
    {
      "bufferView": 2,
      "byteOffset": 202992,
      "componentType": 5126,
      "count": 818,
      "max": [
        0.38867297768592834,
        0.10090836882591248,
        0.15468837320804596
      ],
      "min": [
        -8.05807113647461,
        -2.4871504306793213,
        -0.11285751312971115
      ],
      "type": "VEC3"
    },
    {
      "bufferView": 2,
      "byteOffset": 212808,
      "componentType": 5126,
      "count": 818,
      "max": [
        0.9780383110046387,
        0.9995324015617371,
        0.9996111392974854
      ],
      "min": [
        -0.9780389070510864,
        -0.9995042681694031,
        -0.9996416568756104
      ],
      "type": "VEC3"
    },
    {
      "bufferView": 1,
      "byteOffset": 67664,
      "componentType": 5126,
      "count": 818,
      "max": [
        0.9518898725509644,
        1.0
      ],
      "min": [
        0.015947014093399048,
        -9.393761501996778e-07
      ],
      "type": "VEC2"
    },
    {
      "bufferView": 0,
      "byteOffset": 106680,
      "componentType": 5125,
      "count": 1944,
      "type": "SCALAR"
    }
  ],
  "asset": {
    "extras": {
      "author": "trashbinkr (https://sketchfab.com/ChristopherKR)",
      "license": "SKETCHFAB Standard (https://sketchfab.com/licenses)",
      "source": "https://sketchfab.com/3d-models/simple-alien-capsule-364372f381584adc8f70f203d0e874ab",
      "title": "Simple Alien capsule"
    },
    "generator": "Sketchfab-17.14.0",
    "version": "2.0"
  },
  "bufferViews": [
    {
      "buffer": 0,
      "byteLength": 114456,
      "name": "floatBufferViews",
      "target": 34963
    },
    {
      "buffer": 0,
      "byteLength": 74208,
      "byteOffset": 114456,
      "byteStride": 8,
      "name": "floatBufferViews",
      "target": 34962
    },
    {
      "buffer": 0,
      "byteLength": 222624,
      "byteOffset": 188664,
      "byteStride": 12,
      "name": "floatBufferViews",
      "target": 34962
    }
  ],
  "buffers": [
    {
      "byteLength": 411288,
      "uri": "scene.bin"
    }
  ],
  "extensionsUsed": [
    "KHR_materials_emissive_strength",
    "KHR_materials_specular"
  ],
  "materials": [
    {
      "doubleSided": true,
      "name": "Base",
      "pbrMetallicRoughness": {
        "baseColorFactor": [
          0.0719887,
          0.0719887,
          0.0719887,
          1.0
        ],
        "metallicFactor": 0.0,
        "roughnessFactor": 0.9839028373188161
      }
    },
    {
      "alphaMode": "BLEND",
      "doubleSided": true,
      "emissiveFactor": [
        0.00833872678680719,
        0.13788420204419904,
        0.004658570774768528
      ],
      "extensions": {
        "KHR_materials_emissive_strength": {
          "emissiveStrength": 2.057149126549719
        },
        "KHR_materials_specular": {
          "specularColorFactor": [
            1.0,
            1.0,
            1.0
          ],
          "specularFactor": 1.0
        }
      },
      "name": "Glass",
      "pbrMetallicRoughness": {
        "baseColorFactor": [
          0.02055260893309081,
          0.2855180324876753,
          0.08754367634498234,
          0.37638209945020784
        ],
        "metallicFactor": 0.0,
        "roughnessFactor": 0.0
      }
    },
    {
      "doubleSided": true,
      "emissiveFactor": [
        0.0,
        0.867126,
        1.0
      ],
      "extensions": {
        "KHR_materials_emissive_strength": {
          "emissiveStrength": 10.0
        }
      },
      "name": "Glow.001",
      "pbrMetallicRoughness": {
        "baseColorFactor": [
          0.0854797,
          0.748368,
          0.800016,
          1.0
        ],
        "metallicFactor": 0.0,
        "roughnessFactor": 0.8633389192167219
      }
    },
    {
      "doubleSided": true,
      "emissiveFactor": [
        0.0,
        1.0,
        0.87805
      ],
      "extensions": {
        "KHR_materials_emissive_strength": {
          "emissiveStrength": 10.0
        }
      },
      "name": "Glow",
      "pbrMetallicRoughness": {
        "baseColorFactor": [
          0.0,
          0.78466,
          0.800016,
          1.0
        ],
        "metallicFactor": 0.0,
        "roughnessFactor": 0.8615985753948174
      }
    }
  ],
  "meshes": [
    {
      "name": "Base_Base_0",
      "primitives": [
        {
          "attributes": {
            "NORMAL": 1,
            "POSITION": 0,
            "TEXCOORD_0": 2
          },
          "indices": 3,
          "material": 0,
          "mode": 4
        }
      ]
    },
    {
      "name": "Base_Glass_0",
      "primitives": [
        {
          "attributes": {
            "NORMAL": 5,
            "POSITION": 4,
            "TEXCOORD_0": 6
          },
          "indices": 7,
          "material": 1,
          "mode": 4
        }
      ]
    },
    {
      "name": "Base.2_Base_0",
      "primitives": [
        {
          "attributes": {
            "NORMAL": 9,
            "POSITION": 8,
            "TEXCOORD_0": 10
          },
          "indices": 11,
          "material": 0,
          "mode": 4
        }
      ]
    },
    {
      "name": "Capsule_Base_0",
      "primitives": [
        {
          "attributes": {
            "NORMAL": 13,
            "POSITION": 12,
            "TEXCOORD_0": 14
          },
          "indices": 15,
          "material": 0,
          "mode": 4
        }
      ]
    },
    {
      "name": "Capsule_Glass_0",
      "primitives": [
        {
          "attributes": {
            "NORMAL": 17,
            "POSITION": 16,
            "TEXCOORD_0": 18
          },
          "indices": 19,
          "material": 1,
          "mode": 4
        }
      ]
    },
    {
      "name": "Glass_Glass_0",
      "primitives": [
        {
          "attributes": {
            "NORMAL": 21,
            "POSITION": 20,
            "TEXCOORD_0": 22
          },
          "indices": 23,
          "material": 1,
          "mode": 4
        }
      ]
    },
    {
      "name": "Pipe1_Base_0",
      "primitives": [
        {
          "attributes": {
            "NORMAL": 25,
            "POSITION": 24,
            "TEXCOORD_0": 26
          },
          "indices": 27,
          "material": 0,
          "mode": 4
        }
      ]
    },
    {
      "name": "Pipe1_Glow.001_0",
      "primitives": [
        {
          "attributes": {
            "NORMAL": 29,
            "POSITION": 28,
            "TEXCOORD_0": 30
          },
          "indices": 31,
          "material": 2,
          "mode": 4
        }
      ]
    },
    {
      "name": "Pipe2_Base_0",
      "primitives": [
        {
          "attributes": {
            "NORMAL": 33,
            "POSITION": 32,
            "TEXCOORD_0": 34
          },
          "indices": 35,
          "material": 0,
          "mode": 4
        }
      ]
    },
    {
      "name": "Pipe2_Glow_0",
      "primitives": [
        {
          "attributes": {
            "NORMAL": 37,
            "POSITION": 36,
            "TEXCOORD_0": 38
          },
          "indices": 39,
          "material": 3,
          "mode": 4
        }
      ]
    }
  ],
  "nodes": [
    {
      "children": [
        1
      ],
      "matrix": [
        1.0,
        0.0,
        0.0,
        0.0,
        0.0,
        2.220446049250313e-16,
        -1.0,
        0.0,
        0.0,
        1.0,
        2.220446049250313e-16,
        0.0,
        0.0,
        0.0,
        0.0,
        1.0
      ],
      "name": "Sketchfab_model"
    },
    {
      "children": [
        2
      ],
      "matrix": [
        0.009999999776482582,
        0.0,
        0.0,
        0.0,
        0.0,
        0.0,
        0.009999999776482582,
        0.0,
        0.0,
        -0.009999999776482582,
        0.0,
        0.0,
        0.0,
        0.0,
        0.0,
        1.0
      ],
      "name": "653b034b8d49454a9f4105c202f743c8.fbx"
    },
    {
      "children": [
        3,
        6,
        8,
        11,
        13,
        16
      ],
      "name": "RootNode"
    },
    {
      "children": [
        4,
        5
      ],
      "matrix": [
        244.39781188964844,
        0.0,
        0.0,
        0.0,
        0.0,
        -3.981745755493853e-05,
        -244.3978118896452,
        0.0,
        0.0,
        244.3978118896452,
        -3.981745755493853e-05,
        0.0,
        0.0,
        73.6349868774414,
        0.0,
        1.0
      ],
      "name": "Base"
    },
    {
      "mesh": 0,
      "name": "Base_Base_0"
    },
    {
      "mesh": 1,
      "name": "Base_Glass_0"
    },
    {
      "children": [
        7
      ],
      "matrix": [
        187.90553283691406,
        0.0,
        0.0,
        0.0,
        0.0,
        -3.061369707127413e-05,
        -187.9055328369116,
        0.0,
        0.0,
        98.19165802001824,
        -1.5997451635231955e-05,
        0.0,
        0.0,
        959.8231201171875,
        0.0,
        1.0
      ],
      "name": "Base.2"
    },
    {
      "mesh": 2,
      "name": "Base.2_Base_0"
    },
    {
      "children": [
        9,
        10
      ],
      "matrix": [
        18.134069186278047,
        -9.248524083771605,
        1.2513163749675163e-06,
        0.0,
        7.104473173270784e-07,
        -1.361178039207509e-06,
        -20.356313705444276,
        0.0,
        9.248524083771661,
        18.134069186278037,
        -8.898029308511091e-07,
        0.0,
        334.74853515625,
        275.4053955078125,
        9.736487299960572e-06,
        1.0
      ],
      "name": "Capsule"
    },
    {
      "mesh": 3,
      "name": "Capsule_Base_0"
    },
    {
      "mesh": 4,
      "name": "Capsule_Glass_0"
    },
    {
      "children": [
        12
      ],
      "matrix": [
        150.9583282470703,
        0.0,
        0.0,
        0.0,
        0.0,
        -2.459423339786779e-05,
        -150.95832824706832,
        0.0,
        0.0,
        78.88458251953021,
        -1.285192977762302e-05,
        0.0,
        0.0,
        301.6545104980469,
        0.0,
        1.0
      ],
      "name": "Glass"
    },
    {
      "mesh": 5,
      "name": "Glass_Glass_0"
    },
    {
      "children": [
        14,
        15
      ],
      "matrix": [
        -1.629206793918314e-05,
        -99.99999999999856,
        4.371139183945161e-06,
        0.0,
        -99.99999999999753,
        1.6292068616419186e-05,
        1.5099579909783694e-05,
        0.0,
        -1.5099580621932473e-05,
        -4.3711367239112345e-06,
        -99.99999999999875,
        0.0,
        -273.17218017578125,
        241.15231323242188,
        17.531614303588867,
        1.0
      ],
      "name": "Pipe1"
    },
    {
      "mesh": 6,
      "name": "Pipe1_Base_0"
    },
    {
      "mesh": 7,
      "name": "Pipe1_Glow.001_0"
    },
    {
      "children": [
        17,
        18
      ],
      "matrix": [
        -1.629206793918314e-05,
        -99.99999999999856,
        4.371139183945161e-06,
        0.0,
        -99.99999999999753,
        1.6292068616419186e-05,
        1.5099579909783694e-05,
        0.0,
        -1.5099580621932473e-05,
        -4.3711367239112345e-06,
        -99.99999999999875,
        0.0,
        -273.17218017578125,
        241.15231323242188,
        -17.879467010498047,
        1.0
      ],
      "name": "Pipe2"
    },
    {
      "mesh": 8,
      "name": "Pipe2_Base_0"
    },
    {
      "mesh": 9,
      "name": "Pipe2_Glow_0"
    }
  ],
  "scene": 0,
  "scenes": [
    {
      "name": "Sketchfab_Scene",
      "nodes": [
        0
      ]
    }
  ]
}
