{
  "accessors": [
    {
      "bufferView": 2,
      "componentType": 5126,
      "count": 1060,
      "max": [
        1.0976860523223877,
        1.0399563312530518,
        3.0780606269836426
      ],
      "min": [
        -1.0643806457519531,
        -1.049533724784851,
        -0.07679319381713867
      ],
      "type": "VEC3"
    },
    {
      "bufferView": 2,
      "byteOffset": 12720,
      "componentType": 5126,
      "count": 1060,
      "max": [
        0.9988914132118225,
        0.9994171857833862,
        0.9993921518325806
      ],
      "min": [
        -0.998891294002533,
        -0.9994171857833862,
        -0.9993918538093567
      ],
      "type": "VEC3"
    },
    {
      "bufferView": 1,
      "componentType": 5126,
      "count": 1060,
      "max": [
        0.7223615646362305,
        0.9978888630867004
      ],
      "min": [
        0.0021019037812948227,
        0.0038161873817443848
      ],
      "type": "VEC2"
    },
    {
      "bufferView": 0,
      "componentType": 5125,
      "count": 3108,
      "type": "SCALAR"
    },
    {
      "bufferView": 2,
      "byteOffset": 25440,
      "componentType": 5126,
      "count": 467,
      "max": [
        1.0311728715896606,
        1.030479907989502,
        2.039396286010742
      ],
      "min": [
        -1.029632329940796,
        -1.030479907989502,
        -1.0456249713897705
      ],
      "type": "VEC3"
    },
    {
      "bufferView": 2,
      "byteOffset": 31044,
      "componentType": 5126,
      "count": 467,
      "max": [
        0.9979870915412903,
        0.9999937415122986,
        0.9994202256202698
      ],
      "min": [
        -0.9999938011169434,
        -0.9999937415122986,
        -0.9999920129776001
      ],
      "type": "VEC3"
    },
    {
      "bufferView": 1,
      "byteOffset": 8480,
      "componentType": 5126,
      "count": 467,
      "max": [
        0.7223615646362305,
        0.9978889226913452
      ],
      "min": [
        0.0021019037812948227,
        0.0038161873817443848
      ],
      "type": "VEC2"
    },
    {
      "bufferView": 0,
      "byteOffset": 12432,
      "componentType": 5125,
      "count": 1506,
      "type": "SCALAR"
    },
    {
      "bufferView": 2,
      "byteOffset": 36648,
      "componentType": 5126,
      "count": 173,
      "max": [
        1.0223342180252075,
        1.0223342180252075,
        2.041675567626953
      ],
      "min": [
        -1.0223342180252075,
        -1.0223342180252075,
        -1.0456249713897705
      ],
      "type": "VEC3"
    },
    {
      "bufferView": 2,
      "byteOffset": 38724,
      "componentType": 5126,
      "count": 173,
      "max": [
        0.9956365823745728,
        0.9909719228744507,
        0.9655773043632507
      ],
      "min": [
        -0.9948636889457703,
        -0.9949989318847656,
        -0.9999944567680359
      ],
      "type": "VEC3"
    },
    {
      "bufferView": 1,
      "byteOffset": 12216,
      "componentType": 5126,
      "count": 173,
      "max": [
        0.7178112268447876,
        0.9978889226913452
      ],
      "min": [
        0.0021019037812948227,
        0.0038161873817443848
      ],
      "type": "VEC2"
    },
    {
      "bufferView": 0,
      "byteOffset": 18456,
      "componentType": 5125,
      "count": 582,
      "type": "SCALAR"
    },
    {
      "bufferView": 2,
      "byteOffset": 40800,
      "componentType": 5126,
      "count": 1060,
      "max": [
        1.0686215162277222,
        1.0236846208572388,
        2.1081721782684326
      ],
      "min": [
        -1.0273462533950806,
        -1.0300254821777344,
        -1.1029661893844604
      ],
      "type": "VEC3"
    },
    {
      "bufferView": 2,
      "byteOffset": 53520,
      "componentType": 5126,
      "count": 1060,
      "max": [
        0.9999385476112366,
        1.0,
        0.9999978542327881
      ],
      "min": [
        -0.9999843835830688,
        -1.0,
        -0.9999902248382568
      ],
      "type": "VEC3"
    },
    {
      "bufferView": 1,
      "byteOffset": 13600,
      "componentType": 5126,
      "count": 1060,
      "max": [
        0.7223615646362305,
        0.9978888630867004
      ],
      "min": [
        0.0021019037812948227,
        0.0038161873817443848
      ],
      "type": "VEC2"
    },
    {
      "bufferView": 0,
      "byteOffset": 20784,
      "componentType": 5125,
      "count": 3108,
      "type": "SCALAR"
    },
    {
      "bufferView": 2,
      "byteOffset": 66240,
      "componentType": 5126,
      "count": 1060,
      "max": [
        1.0142594575881958,
        1.0330203771591187,
        2.0699775218963623
      ],
      "min": [
        -1.022611141204834,
        -1.0288171768188477,
        -1.0410486459732056
      ],
      "type": "VEC3"
    },
    {
      "bufferView": 2,
      "byteOffset": 78960,
      "componentType": 5126,
      "count": 1060,
      "max": [
        0.9997198581695557,
        0.9999985098838806,
        0.9999975562095642
      ],
      "min": [
        -0.999781608581543,
        -0.9999983310699463,
        -0.9999998807907104
      ],
      "type": "VEC3"
    },
    {
      "bufferView": 1,
      "byteOffset": 22080,
      "componentType": 5126,
      "count": 1060,
      "max": [
        0.7223615646362305,
        0.9978888630867004
      ],
      "min": [
        0.0021019037812948227,
        0.0038161873817443848
      ],
      "type": "VEC2"
    },
    {
      "bufferView": 0,
      "byteOffset": 33216,
      "componentType": 5125,
      "count": 3108,
      "type": "SCALAR"
    },
    {
      "bufferView": 2,
      "byteOffset": 91680,
      "componentType": 5126,
      "count": 1060,
      "max": [
        1.030479907989502,
        1.030479907989502,
        2.039396286010742
      ],
      "min": [
        -1.030479907989502,
        -1.030479907989502,
        -1.0456249713897705
      ],
      "type": "VEC3"
    },
    {
      "bufferView": 2,
      "byteOffset": 104400,
      "componentType": 5126,
      "count": 1060,
      "max": [
        1.0,
        1.0,
        1.0
      ],
      "min": [
        -1.0,
        -1.0,
        -1.0
      ],
      "type": "VEC3"
    },
    {
      "bufferView": 1,
      "byteOffset": 30560,
      "componentType": 5126,
      "count": 1060,
      "max": [
        0.7223615646362305,
        0.9978888630867004
      ],
      "min": [
        0.0021019037812948227,
        0.0038161873817443848
      ],
      "type": "VEC2"
    },
    {
      "bufferView": 0,
      "byteOffset": 45648,
      "componentType": 5125,
      "count": 3108,
      "type": "SCALAR"
    },
    {
      "bufferView": 2,
      "byteOffset": 117120,
      "componentType": 5126,
      "count": 467,
      "max": [
        1.0311728715896606,
        1.030479907989502,
        2.039396286010742
      ],
      "min": [
        -1.029632329940796,
        -1.030479907989502,
        -1.0456249713897705
      ],
      "type": "VEC3"
    },
    {
      "bufferView": 2,
      "byteOffset": 122724,
      "componentType": 5126,
      "count": 467,
      "max": [
        0.9979870915412903,
        0.9999937415122986,
        0.9994202256202698
      ],
      "min": [
        -0.9999938011169434,
        -0.9999937415122986,
        -0.9999920129776001
      ],
      "type": "VEC3"
    },
    {
      "bufferView": 1,
      "byteOffset": 39040,
      "componentType": 5126,
      "count": 467,
      "max": [
        0.7223615646362305,
        0.9978889226913452
      ],
      "min": [
        0.0021019037812948227,
        0.0038161873817443848
      ],
      "type": "VEC2"
    },
    {
      "bufferView": 0,
      "byteOffset": 58080,
      "componentType": 5125,
      "count": 1506,
      "type": "SCALAR"
    },
    {
      "bufferView": 2,
      "byteOffset": 128328,
      "componentType": 5126,
      "count": 173,
      "max": [
        1.0223342180252075,
        1.0223342180252075,
        2.041675567626953
      ],
      "min": [
        -1.0223342180252075,
        -1.0223342180252075,
        -1.0456249713897705
      ],
      "type": "VEC3"
    },
    {
      "bufferView": 2,
      "byteOffset": 130404,
      "componentType": 5126,
      "count": 173,
      "max": [
        0.9956365823745728,
        0.9909719228744507,
        0.9655773043632507
      ],
      "min": [
        -0.9948636889457703,
        -0.9949989318847656,
        -0.9999944567680359
      ],
      "type": "VEC3"
    },
    {
      "bufferView": 1,
      "byteOffset": 42776,
      "componentType": 5126,
      "count": 173,
      "max": [
        0.7178112268447876,
        0.9978889226913452
      ],
      "min": [
        0.0021019037812948227,
        0.0038161873817443848
      ],
      "type": "VEC2"
    },
    {
      "bufferView": 0,
      "byteOffset": 64104,
      "componentType": 5125,
      "count": 582,
      "type": "SCALAR"
    },
    {
      "bufferView": 2,
      "byteOffset": 132480,
      "componentType": 5126,
      "count": 667,
      "max": [
        20.815181732177734,
        7.425624847412109,
        3.8123416900634766
      ],
      "min": [
        -2.102386474609375,
        -10.503193855285645,
        -1.104315996170044
      ],
      "type": "VEC3"
    },
    {
      "bufferView": 2,
      "byteOffset": 140484,
      "componentType": 5126,
      "count": 667,
      "max": [
        1.0,
        1.0,
        1.0
      ],
      "min": [
        -1.0,
        -1.0,
        -1.0
      ],
      "type": "VEC3"
    },
    {
      "bufferView": 1,
      "byteOffset": 44160,
      "componentType": 5126,
      "count": 667,
      "max": [
        0.9982244372367859,
        0.9930219054222107
      ],
      "min": [
        0.0017755330773070455,
        0.0017755070002749562
      ],
      "type": "VEC2"
    },
    {
      "bufferView": 0,
      "byteOffset": 66432,
      "componentType": 5125,
      "count": 2676,
      "type": "SCALAR"
    },
    {
      "bufferView": 2,
      "byteOffset": 148488,
      "componentType": 5126,
      "count": 223,
      "max": [
        20.819509506225586,
        7.428133010864258,
        3.813103675842285
      ],
      "min": [
        -2.1050477027893066,
        -10.50565242767334,
        -1.10187828540802
      ],
      "type": "VEC3"
    },
    {
      "bufferView": 2,
      "byteOffset": 151164,
      "componentType": 5126,
      "count": 223,
      "max": [
        0.9842972755432129,
        0.9985546469688416,
        0.989975094795227
      ],
      "min": [
        -0.98628830909729,
        -0.9991170763969421,
        -0.9365297555923462
      ],
      "type": "VEC3"
    },
    {
      "bufferView": 1,
      "byteOffset": 49496,
      "componentType": 5126,
      "count": 223,
      "max": [
        0.9829294681549072,
        0.7678136825561523
      ],
      "min": [
        0.0017755330773070455,
        0.0017755070002749562
      ],
      "type": "VEC2"
    },
    {
      "bufferView": 0,
      "byteOffset": 77136,
      "componentType": 5125,
      "count": 750,
      "type": "SCALAR"
    },
    {
      "bufferView": 2,
      "byteOffset": 153840,
      "componentType": 5126,
      "count": 89,
      "max": [
        20.945816040039063,
        7.549002170562744,
        3.892214059829712
      ],
      "min": [
        -1.9871444702148438,
        -10.491496086120605,
        -1.0987428426742554
      ],
      "type": "VEC3"
    },
    {
      "bufferView": 2,
      "byteOffset": 154908,
      "componentType": 5126,
      "count": 89,
      "max": [
        0.9845023155212402,
        0.9897754788398743,
        0.9785556793212891
      ],
      "min": [
        -0.9997026920318604,
        -0.9576432704925537,
        -0.7901076078414917
      ],
      "type": "VEC3"
    },
    {
      "bufferView": 1,
      "byteOffset": 51280,
      "componentType": 5126,
      "count": 89,
      "max": [
        0.9781443476676941,
        0.7667526006698608
      ],
      "min": [
        0.00240370468236506,
        0.0025550539139658213
      ],
      "type": "VEC2"
    },
    {
      "bufferView": 0,
      "byteOffset": 80136,
      "componentType": 5125,
      "count": 222,
      "type": "SCALAR"
    }
  ],
  "asset": {
    "extras": {
      "author": "trashbinkr (https://sketchfab.com/ChristopherKR)",
      "license": "SKETCHFAB Standard (https://sketchfab.com/licenses)",
      "source": "https://sketchfab.com/3d-models/simple-barrel-lods-fbc6cbebca3d45d4bbfe5aee8fd905c0",
      "title": "Simple Barrel (LODs)"
    },
    "generator": "Sketchfab-17.14.0",
    "version": "2.0"
  },
  "bufferViews": [
    {
      "buffer": 0,
      "byteLength": 81024,
      "name": "floatBufferViews",
      "target": 34963
    },
    {
      "buffer": 0,
      "byteLength": 51992,
      "byteOffset": 81024,
      "byteStride": 8,
      "name": "floatBufferViews",
      "target": 34962
    },
    {
      "buffer": 0,
      "byteLength": 155976,
      "byteOffset": 133016,
      "byteStride": 12,
      "name": "floatBufferViews",
      "target": 34962
    }
  ],
  "buffers": [
    {
      "byteLength": 288992,
      "uri": "scene.bin"
    }
  ],
  "extensionsUsed": [
    "KHR_materials_emissive_strength"
  ],
  "images": [
    {
      "uri": "textures/Barrel_baseColor.png"
    },
    {
      "uri": "textures/ToxicWater_baseColor.png"
    }
  ],
  "materials": [
    {
      "doubleSided": true,
      "name": "Barrel",
      "pbrMetallicRoughness": {
        "baseColorTexture": {
          "index": 0
        },
        "metallicFactor": 0.0
      }
    },
    {
      "doubleSided": true,
      "name": "Barrel.001",
      "pbrMetallicRoughness": {
        "baseColorTexture": {
          "index": 0
        },
        "metallicFactor": 0.0
      }
    },
    {
      "doubleSided": true,
      "name": "Barrel.002",
      "pbrMetallicRoughness": {
        "baseColorTexture": {
          "index": 0
        },
        "metallicFactor": 0.0
      }
    },
    {
      "doubleSided": true,
      "emissiveFactor": [
        0.0009260225225116911,
        0.04825934533322086,
        0.0
      ],
      "extensions": {
        "KHR_materials_emissive_strength": {
          "emissiveStrength": 10.0
        }
      },
      "name": "ToxicWater",
      "pbrMetallicRoughness": {
        "baseColorTexture": {
          "index": 1
        },
        "metallicFactor": 0.0,
        "roughnessFactor": 0.8311363302970836
      }
    }
  ],
  "meshes": [
    {
      "name": "FLOD0_Barrel_0",
      "primitives": [
        {
          "attributes": {
            "NORMAL": 1,
            "POSITION": 0,
            "TEXCOORD_0": 2
          },
          "indices": 3,
          "material": 0,
          "mode": 4
        }
      ]
    },
    {
      "name": "FLOD1_Barrel.001_0",
      "primitives": [
        {
          "attributes": {
            "NORMAL": 5,
            "POSITION": 4,
            "TEXCOORD_0": 6
          },
          "indices": 7,
          "material": 1,
          "mode": 4
        }
      ]
    },
    {
      "name": "FLOD2_Barrel.001_0",
      "primitives": [
        {
          "attributes": {
            "NORMAL": 9,
            "POSITION": 8,
            "TEXCOORD_0": 10
          },
          "indices": 11,
          "material": 1,
          "mode": 4
        }
      ]
    },
    {
      "name": "HitBarrel1_Barrel.002_0",
      "primitives": [
        {
          "attributes": {
            "NORMAL": 13,
            "POSITION": 12,
            "TEXCOORD_0": 14
          },
          "indices": 15,
          "material": 2,
          "mode": 4
        }
      ]
    },
    {
      "name": "HitBarrel2_Barrel.002_0",
      "primitives": [
        {
          "attributes": {
            "NORMAL": 17,
            "POSITION": 16,
            "TEXCOORD_0": 18
          },
          "indices": 19,
          "material": 2,
          "mode": 4
        }
      ]
    },
    {
      "name": "SLOD0_Barrel.002_0",
      "primitives": [
        {
          "attributes": {
            "NORMAL": 21,
            "POSITION": 20,
            "TEXCOORD_0": 22
          },
          "indices": 23,
          "material": 2,
          "mode": 4
        }
      ]
    },
    {
      "name": "SLOD1_Barrel.002_0",
      "primitives": [
        {
          "attributes": {
            "NORMAL": 25,
            "POSITION": 24,
            "TEXCOORD_0": 26
          },
          "indices": 27,
          "material": 2,
          "mode": 4
        }
      ]
    },
    {
      "name": "SLOD2_Barrel.002_0",
      "primitives": [
        {
          "attributes": {
            "NORMAL": 29,
            "POSITION": 28,
            "TEXCOORD_0": 30
          },
          "indices": 31,
          "material": 2,
          "mode": 4
        }
      ]
    },
    {
      "name": "ToxicFluidLOD0_ToxicWater_0",
      "primitives": [
        {
          "attributes": {
            "NORMAL": 33,
            "POSITION": 32,
            "TEXCOORD_0": 34
          },
          "indices": 35,
          "material": 3,
          "mode": 4
        }
      ]
    },
    {
      "name": "ToxicFluidLOD1_ToxicWater_0",
      "primitives": [
        {
          "attributes": {
            "NORMAL": 37,
            "POSITION": 36,
            "TEXCOORD_0": 38
          },
          "indices": 39,
          "material": 3,
          "mode": 4
        }
      ]
    },
    {
      "name": "ToxicFluidLOD2_ToxicWater_0",
      "primitives": [
        {
          "attributes": {
            "NORMAL": 41,
            "POSITION": 40,
            "TEXCOORD_0": 42
          },
          "indices": 43,
          "material": 3,
          "mode": 4
        }
      ]
    }
  ],
  "nodes": [
    {
      "children": [
        1
      ],
      "matrix": [
        1.0,
        0.0,
        0.0,
        0.0,
        0.0,
        2.220446049250313e-16,
        -1.0,
        0.0,
        0.0,
        1.0,
        2.220446049250313e-16,
        0.0,
        0.0,
        0.0,
        0.0,
        1.0
      ],
      "name": "Sketchfab_model"
    },
    {
      "children": [
        2
      ],
      "matrix": [
        0.009999999776482582,
        0.0,
        0.0,
        0.0,
        0.0,
        0.0,
        0.009999999776482582,
        0.0,
        0.0,
        -0.009999999776482582,
        0.0,
        0.0,
        0.0,
        0.0,
        0.0,
        1.0
      ],
      "name": "Barrel.fbx"
    },
    {
      "children": [
        3,
        5,
        7,
        9,
        11,
        13,
        15,
        17,
        19,
        21,
        23
      ],
      "name": "RootNode"
    },
    {
      "children": [
        4
      ],
      "matrix": [
        3.4899377226674977,
        -99.93909075317241,
        -5.855532306130546e-06,
        0.0,
        -4.572830647475712e-06,
        5.699414851179085e-06,
        -99.99999999999973,
        0.0,
        99.93909075317248,
        3.4899377226677473,
        -4.371139339800917e-06,
        0.0,
        0.0,
        100.10318756103516,
        0.0,
        1.0
      ],
      "name": "FLOD0"
    },
    {
      "mesh": 0,
      "name": "FLOD0_Barrel_0"
    },
    {
      "children": [
        6
      ],
      "matrix": [
        -0.00035258817101535556,
        -88.64304613781306,
        46.28617905255552,
        0.0,
        0.003685822034127373,
        -46.28617903292253,
        -88.64304607213676,
        0.0,
        99.99999993145198,
        0.0013934812913896089,
        0.003430424518358066,
        0.0,
        102.39683532714844,
        103.96605682373047,
        -218.84918212890625,
        1.0
      ],
      "name": "FLOD1"
    },
    {
      "mesh": 1,
      "name": "FLOD1_Barrel.001_0"
    },
    {
      "children": [
        8
      ],
      "matrix": [
        0.01660837377540636,
        -89.15791921310122,
        45.286478840290044,
        0.0,
        -0.18379326068824753,
        -45.286430191550345,
        -89.15775603133562,
        0.0,
        99.99982209146972,
        -0.06842583751953334,
        -0.17138757340348615,
        0.0,
        95.0381851196289,
        103.96605682373047,
        -439.39056396484375,
        1.0
      ],
      "name": "FLOD2"
    },
    {
      "mesh": 2,
      "name": "FLOD2_Barrel.001_0"
    },
    {
      "children": [
        10
      ],
      "matrix": [
        43.30679544450247,
        -5.4081903066993675e-06,
        -90.13612743139122,
        0.0,
        -90.13612743139043,
        -1.6956718917882085e-05,
        -43.3067954445011,
        0.0,
        -1.2942015853445454e-05,
        99.99999999999845,
        -1.2218144895825844e-05,
        0.0,
        -117.8961181640625,
        100.405029296875,
        -669.0213012695313,
        1.0
      ],
      "name": "HitBarrel1"
    },
    {
      "mesh": 3,
      "name": "HitBarrel1_Barrel.002_0"
    },
    {
      "children": [
        12
      ],
      "matrix": [
        61.53254608147378,
        3.878671883672524e-06,
        -78.82731615836789,
        0.0,
        -78.8273161583674,
        -9.339977635747232e-06,
        -61.53254608147384,
        0.0,
        -9.749099272315931e-06,
        99.99999999999947,
        -2.6896731064596224e-06,
        0.0,
        72.26166534423828,
        100.405029296875,
        -839.275146484375,
        1.0
      ],
      "name": "HitBarrel2"
    },
    {
      "mesh": 4,
      "name": "HitBarrel2_Barrel.002_0"
    },
    {
      "children": [
        14
      ],
      "matrix": [
        8.734070164759578,
        3.628744116301874e-06,
        -99.61784989828402,
        0.0,
        -99.61784989825073,
        -8.152215380530237e-05,
        -8.734070164759643,
        0.0,
        -8.152755385792965e-05,
        99.99999999996672,
        -3.505325252284308e-06,
        0.0,
        -173.09115600585938,
        100.405029296875,
        161.75125122070313,
        1.0
      ],
      "name": "SLOD0"
    },
    {
      "mesh": 5,
      "name": "SLOD0_Barrel.002_0"
    },
    {
      "children": [
        16
      ],
      "matrix": [
        -1.960776153663879,
        -3.1261915778291183e-06,
        -99.9807749363607,
        0.0,
        -99.98077493634115,
        6.272072942126172e-05,
        1.9607761536615198,
        0.0,
        6.26473737053157e-05,
        99.99999999998028,
        -4.3554036821547015e-06,
        0.0,
        9.495830535888672,
        100.405029296875,
        340.80450439453125,
        1.0
      ],
      "name": "SLOD1"
    },
    {
      "mesh": 6,
      "name": "SLOD1_Barrel.002_0"
    },
    {
      "children": [
        18
      ],
      "matrix": [
        0.7078545328100254,
        3.032959459607211e-06,
        -99.99750230800436,
        0.0,
        -99.99750228227056,
        -0.002268655776261703,
        -0.7078545326966716,
        0.0,
        -0.0022686202350075124,
        99.99999997426596,
        -1.3025897049878665e-05,
        0.0,
        208.330322265625,
        100.405029296875,
        501.73553466796875,
        1.0
      ],
      "name": "SLOD2"
    },
    {
      "mesh": 7,
      "name": "SLOD2_Barrel.002_0"
    },
    {
      "children": [
        20
      ],
      "matrix": [
        11.265728950500488,
        0.0,
        0.0,
        0.0,
        0.0,
        -1.8354202144597634e-06,
        -11.265728950500339,
        0.0,
        0.0,
        11.265728950500339,
        -1.8354202144597634e-06,
        0.0,
        316.6407470703125,
        12.440924644470215,
        0.0,
        1.0
      ],
      "name": "ToxicFluidLOD0"
    },
    {
      "mesh": 8,
      "name": "ToxicFluidLOD0_ToxicWater_0"
    },
    {
      "children": [
        22
      ],
      "matrix": [
        11.265728950500488,
        0.0,
        0.0,
        0.0,
        0.0,
        -1.8354202144597634e-06,
        -11.265728950500339,
        0.0,
        0.0,
        11.265728950500339,
        -1.8354202144597634e-06,
        0.0,
        316.6407470703125,
        12.440924644470215,
        -223.9061279296875,
        1.0
      ],
      "name": "ToxicFluidLOD1"
    },
    {
      "mesh": 9,
      "name": "ToxicFluidLOD1_ToxicWater_0"
    },
    {
      "children": [
        24
      ],
      "matrix": [
        11.265728950500488,
        0.0,
        0.0,
        0.0,
        0.0,
        -1.8354202144597634e-06,
        -11.265728950500339,
        0.0,
        0.0,
        11.265728950500339,
        -1.8354202144597634e-06,
        0.0,
        311.4136047363281,
        12.440924644470215,
        -446.1810607910156,
        1.0
      ],
      "name": "ToxicFluidLOD2"
    },
    {
      "mesh": 10,
      "name": "ToxicFluidLOD2_ToxicWater_0"
    }
  ],
  "samplers": [
    {
      "magFilter": 9729,
      "minFilter": 9987,
      "wrapS": 10497,
      "wrapT": 10497
    }
  ],
  "scene": 0,
  "scenes": [
    {
      "name": "Sketchfab_Scene",
      "nodes": [
        0
      ]
    }
  ],
  "textures": [
    {
      "sampler": 0,
      "source": 0
    },
    {
      "sampler": 0,
      "source": 1
    }
  ]
}
